<svg width="10" height="10" viewBox="0 0 10 10" fill="none" xmlns="http://www.w3.org/2000/svg">
<mask id="mask0" mask-type="alpha" maskUnits="userSpaceOnUse" x="0" y="0" width="10" height="10">
<rect width="10" height="10" fill="#C4C4C4"/>
</mask>
<g mask="url(#mask0)">
</g>
<mask id="mask1" mask-type="alpha" maskUnits="userSpaceOnUse" x="0" y="0" width="10" height="10">
<rect width="10" height="10" fill="#C4C4C4"/>
</mask>
<g mask="url(#mask1)">
<path d="M7.4689 7.88699C7.23663 7.88699 7.0508 7.70118 7.0508 7.46891C7.0508 7.23665 7.23663 7.05084 7.4689 7.05084C7.70117 7.05084 7.88696 7.23665 7.88696 7.46891C7.88696 7.70118 7.70117 7.88699 7.4689 7.88699Z" fill="white" fill-opacity="0.5"/>
<path d="M7.4689 2.0339C7.238 2.0339 7.0508 2.22108 7.0508 2.45198C7.0508 2.68288 7.238 2.87006 7.4689 2.87006C7.6998 2.87006 7.88696 2.68288 7.88696 2.45198C7.88696 2.22108 7.6998 2.0339 7.4689 2.0339Z" fill="white" fill-opacity="0.5"/>
<path d="M2.45205 7.88699C2.21978 7.88699 2.03396 7.70118 2.03396 7.46891C2.03396 7.23665 2.21978 7.05084 2.45205 7.05084C2.68432 7.05084 2.87012 7.23665 2.87012 7.46891C2.87012 7.70118 2.68432 7.88699 2.45205 7.88699Z" fill="white" fill-opacity="0.5"/>
<path d="M2.45205 2.0339C2.22115 2.0339 2.03396 2.22108 2.03396 2.45198C2.03396 2.68288 2.22115 2.87006 2.45205 2.87006C2.68295 2.87006 2.87012 2.68288 2.87012 2.45198C2.87012 2.22108 2.68295 2.0339 2.45205 2.0339Z" fill="white" fill-opacity="0.5"/>
</g>
</svg>
