<svg version="1.2" xmlns="http://www.w3.org/2000/svg" viewBox="0 0 834 90" width="834" height="90">
	<title>tpg_logo-1-svg</title>
	<defs>
		<clipPath clipPathUnits="userSpaceOnUse" id="cp1">
			<path d="m0 0h833.69v140h-833.69z"/>
		</clipPath>
	</defs>
	<style>
		.s0 { fill: #ffffff } 
	</style>
	<g id="Clip-Path" clip-path="url(#cp1)">
		<g id="Layer">
			<path id="Layer" class="s0" d="m797.1 54.7l-6.3 8.9c-3.1 4.4-8.4 7.5-14.2 7.5h-21.9v-16.4z"/>
			<path id="Layer" class="s0" d="m815.4 28.4l-6.3 8.9c-3.1 4.5-8.4 7.6-14.2 7.6h-40.2v-16.5z"/>
			<path id="Layer" class="s0" d="m833.7 1.8l-6.3 8.9c-3.1 4.4-8.4 7.5-14.2 7.5h-91.5l-4.5-16.4z"/>
			<path id="Layer" class="s0" d="m79 54.7v16.4h-21.9c-5.8 0-11.1-3.1-14.3-7.5l-6.2-8.9z"/>
			<path id="Layer" class="s0" d="m79 28v16.4h-40.2c-5.8 0-11.1-3.1-14.3-7.5l-6.2-8.9z"/>
			<path id="Layer" class="s0" d="m116.5 1.3l-4.5 16.5h-91.5c-5.8 0-11.1-2.7-14.3-7.6l-6.2-8.9z"/>
			<path id="Layer" class="s0" d="m71.9 1.3h58v16.5h-19.7v53.3h-18.7v-53.3h-20.1v-16.5z"/>
			<path id="Layer" fill-rule="evenodd" class="s0" d="m143.3 62.7c-6.7-7.1-9.9-15.6-9.9-25.8 0-10.2 3.2-19.1 9.9-25.8 6.2-7.5 15.6-11.1 27.6-11.1 12.1 0 21.5 3.6 27.7 10.7 6.7 7.1 9.8 15.5 9.8 25.7 0 10.3-3.1 19.2-9.8 25.8-6.7 7.1-15.6 10.7-27.7 10.7-12 0-21.4-3.6-27.6-10.2zm41.5-12c3.1-3.6 4.9-8.5 4.9-14.3 0-5.7-1.8-10.6-4.9-14.2-3.2-3.5-8.1-5.3-13.9-5.3-5.8 0-10.2 1.8-13.8 5.3-3.1 3.6-4.9 8.5-4.9 14.2 0 5.8 1.8 10.7 4.9 14.3 3.1 3.5 7.6 5.3 13.8 5.3 5.8 0 10.3-1.8 13.9-5.3z"/>
			<path id="Layer" fill-rule="evenodd" class="s0" d="m245.9 1.3q30.8 0 30.8 24 0 24-30.8 24h-9.4v21.8h-18.7v-69.8zm11.6 24q0-8-10.7-8h-10.3v16h10.3q10.7 0 10.7-8z"/>
			<path id="Layer" class="s0" d="m302.6 36.4c0-6.2 0.9-12 3.1-16.4 2.2-4.9 4.9-8.4 8.9-11.6 3.6-2.6 8.1-4.8 12.5-6.2 4.5-1.3 9.4-2.2 14.3-2.2 7.6 0 14.7 1.3 21.9 4.4v17.4c-5.4-3.6-12.1-5.8-19.2-5.8-6.2 0-11.6 1.8-15.6 4.9-4.5 3.5-6.3 8.4-6.3 15.1 0 4 0.9 7.6 2.3 10.2 1.3 3.1 3.1 4.9 5.3 6.2 2.2 1.4 4.5 2.3 6.7 3.2 2.2 0.4 4.5 0.8 6.7 0.8 1.8 0 3.6 0 4.9-0.4v-23.1h17.4v35.1c-7.6 3.1-15.2 4.9-23.2 4.9-5.3 0-9.8-0.9-14.7-2.2-4.5-1.4-8.5-3.6-12.5-6.7-3.6-2.7-6.7-6.7-8.9-11.6-2.7-4.4-3.6-9.7-3.6-16z"/>
			<path id="Layer" class="s0" d="m420.4 1.3h18.8v43.1q0 7.4-2.7 13.4c-1.8 3.5-4.5 6.6-7.2 8.9-2.6 2.2-6.2 3.5-9.8 4.4-3.5 0.9-7.6 1.3-11.6 1.3-4 0-8-0.4-11.6-1.3-3.6-0.9-7.1-2.7-9.8-4.4-2.7-1.8-5.4-4.9-7.1-8.9q-2.7-5.4-2.7-13.4v-43.1h18.7v42.3c0 8.4 4.5 12.8 13 12.8 8.4 0 12.9-4.4 12.9-12.8v-42.3z"/>
			<path id="Layer" class="s0" d="m470 71.6h-18.8v-70.3h17.4l27.7 40c-0.5-3.1-0.5-6.6-0.5-11.5v-28.5h18.8v69.8h-17.4l-27.7-40c0.5 3.1 0.5 6.7 0.5 11.6z"/>
			<path id="Layer" class="s0" d="m549 1.3h18.7v53.4h32.1v16.4h-50.8z"/>
			<path id="Layer" fill-rule="evenodd" class="s0" d="m622.1 71.6h-19.1l27.6-69.8h20.1l27.7 69.8h-19.2l-4-11.2h-29zm16.5-46.2l-7.2 20h17.9l-6.7-20c-0.9-2.2-1.3-4.4-1.8-7.1-0.4 2.2-1.3 4.9-2.2 7.1z"/>
			<path id="Layer" fill-rule="evenodd" class="s0" d="m716.3 1.3c8.1 0 13.9 1.4 18.3 4.5 4.5 3.1 6.3 7.5 6.3 13.3 0 7.6-3.6 12.9-10.3 15.1q13.4 4 13.4 17.4c0 4-0.9 7.1-2.7 9.7-1.8 2.7-4 4.9-6.7 6.3-3.1 1.3-5.8 2.2-8.9 3.1-3.1 0.4-6.7 0.9-10.3 0.9h-30.3v-70.3zm8.5 48.5c0-4.9-3.2-7.1-9.4-7.1h-12.5v14.6h12.5c6.2-0.4 9.4-2.6 9.4-7.5zm-4.5-22.7c1.3-1.3 2.2-2.7 2.2-4.9 0-2.2-0.9-3.5-2.2-4.9-1.3-1.3-3.1-1.7-5.8-1.7h-11.6v12.8h11.6c2.2 0.5 4.5 0 5.8-1.3z"/>
			<path id="Layer" fill-rule="evenodd" class="s0" d="m168.3 108.9c4.4 0 7.1 0.4 9.3 1.8 2.3 1.3 2.7 3.1 2.7 5.7 0 1.8-0.4 3.2-1.3 4.5-0.9 1.3-2.3 1.8-4 2.2 2.2 0.5 3.5 1.3 4.9 2.2 1.3 0.9 1.3 2.7 1.3 4.9q0 4-2.7 6.7c-1.8 1.8-4.4 2.2-8 2.2h-11.2v-30.2zm0.9 12.4c2.3 0 3.6-0.4 4.5-0.9 0.9-0.4 1.3-1.7 1.3-3.5 0-1.3-0.4-2.7-1.8-3.1-0.9-0.5-2.6-0.9-4.9-0.9h-4.4v8.4zm-4.9 14.3h5.3c2.2 0 3.6-0.5 4.9-1.4 0.9-0.9 1.8-2.2 1.8-4 0-1.8-0.4-2.6-1.8-3.5-0.9-0.9-2.7-1.4-4.9-1.4h-5.3z"/>
			<path id="Layer" fill-rule="evenodd" class="s0" d="m216.5 124c0 4.9-1.4 8.9-3.6 11.6-2.2 2.6-6.3 4-10.7 4q-6.7 0-10.7-4c-2.7-2.7-3.6-6.7-3.6-11.6 0-4.9 1.3-8.9 3.6-11.6 2.2-2.6 6.2-4 10.7-4q6.7 0 10.7 4c2.2 2.7 3.6 6.7 3.6 11.6zm-23.7 0c0 4 0.9 6.7 2.2 8.4 1.4 1.8 4.1 3.2 6.7 3.2 3.2 0 5.4-0.9 6.7-3.2 1.4-1.7 2.3-4.8 2.3-8.4 0-3.6-0.9-6.7-2.3-8.4-1.3-1.8-3.5-3.2-6.7-3.2-3.1 0-5.3 0.9-6.7 3.2-1.3 1.7-2.2 4.8-2.2 8.4z"/>
			<path id="Layer" fill-rule="evenodd" class="s0" d="m252.2 124c0 4.9-1.4 8.9-3.6 11.6-2.2 2.6-6.3 4-10.7 4q-6.7 0-10.7-4c-2.7-2.7-3.6-6.7-3.6-11.6 0-4.9 1.3-8.9 3.6-11.6 2.2-2.6 6.2-4 10.7-4q6.7 0 10.7 4c2.2 2.7 3.6 6.7 3.6 11.6zm-23.7 0c0 4 0.9 6.7 2.2 8.4 1.4 1.8 4.1 3.2 6.7 3.2 3.2 0 5.4-0.9 6.7-3.2 1.4-1.7 2.3-4.8 2.3-8.4 0-3.6-0.9-6.7-2.3-8.4-1.3-1.8-3.5-3.2-6.7-3.2-3.1 0-5.3 0.9-6.7 3.2-1.3 1.7-2.2 4.8-2.2 8.4z"/>
			<path id="Layer" class="s0" d="m278 131.1c0 2.7-0.8 4.9-3.1 6.2-2.2 1.4-4.9 2.3-8 2.3-3.6 0-6.3-0.5-8.5-1.8v-4.9c1.3 0.4 3.1 1.3 4.5 1.8 1.8 0.4 3.1 0.4 4.4 0.4 1.8 0 3.6-0.4 4.5-1.3 0.9-0.9 1.3-1.8 1.3-3.1 0-1.4-0.4-2.3-1.3-3.1q-1.3-1.4-5.4-2.7c-2.6-1.3-4.9-2.2-5.8-4-1.3-1.3-1.7-3.1-1.7-5.3 0-2.7 0.8-4.5 2.6-6.3 1.8-1.3 4.5-2.2 7.2-2.2 3.1 0 5.8 0.5 8.9 1.8l-1.8 4c-2.7-1.3-5.3-1.8-7.1-1.8-1.8 0-2.7 0.5-3.6 0.9-0.9 0.4-1.8 3.6-1.8 4.4 0 0.9 0 1.4 0.5 2.3 0.4 0.4 0.9 0.9 1.8 1.7 0.8 0.5 2.2 1.4 4 1.8 2.2 0.9 4 1.8 4.9 2.7 0.9 0.9 1.8 1.8 2.2 2.7 0.9 0.8 1.3 2.2 1.3 3.5z"/>
			<path id="Layer" class="s0" d="m297.2 139.6h-4.9v-26.3h-8.9v-4.4h23.2v4.4h-8.9v26.3z"/>
			<path id="Layer" class="s0" d="m332.9 122.7l7.2-14.3h5.3l-10.2 18.7v12h-4.9v-11.5l-10.3-19.2h5.8z"/>
			<path id="Layer" fill-rule="evenodd" class="s0" d="m377.6 124c0 4.9-1.4 8.9-3.6 11.6-2.2 2.6-6.2 4-10.7 4q-6.7 0-10.7-4c-2.7-2.7-3.6-6.7-3.6-11.6 0-4.9 1.3-8.9 3.6-11.6 2.2-2.6 6.2-4 10.7-4q6.7 0 10.7 4c2.7 2.7 3.6 6.7 3.6 11.6zm-23.2 0c0 4 0.9 6.7 2.2 8.4 1.3 1.8 4 3.2 6.7 3.2 3.1 0 5.3-0.9 6.7-3.2 1.3-1.7 2.2-4.8 2.2-8.4 0-3.6-0.9-6.7-2.2-8.4-1.4-1.8-3.6-3.2-6.7-3.2-3.1 0-5.4 0.9-6.7 3.2-1.8 1.7-2.2 4.8-2.2 8.4z"/>
			<path id="Layer" class="s0" d="m410.2 108.9v20c0 2.2-0.5 4.4-1.4 5.8-0.9 1.3-2.2 3.1-4.4 4q-2.7 1.3-6.7 1.3c-4.1 0-6.7-0.9-9-3.1-2.2-2.2-3.1-4.9-3.1-8.5v-20h4.9v19.6c0 2.7 0.5 4.4 1.8 5.8 1.3 1.3 3.1 1.8 5.4 1.8 4.9 0 7.1-2.7 7.1-7.6v-19.6h5.4z"/>
			<path id="Layer" fill-rule="evenodd" class="s0" d="m424.4 127.1v12.5h-4.9v-30.7h9c4 0 7.1 0.9 8.9 2.2q2.7 2 2.7 6.7c0 4-1.8 6.6-5.8 8l8.9 13.8h-5.8l-7.6-12.5zm0-4h3.6c2.2 0 4-0.4 4.9-1.3 0.9-0.9 1.8-2.2 1.8-4 0-1.8-0.5-3.1-1.8-3.6-1.4-0.9-2.7-1.3-5.4-1.3h-3.1z"/>
			<path id="Layer" class="s0" d="m460.1 139.6v-30.7h4.9v30.7z"/>
			<path id="Layer" class="s0" d="m486 139.6h-4.9v-26.3h-8.9v-4.4h23.2v4.4h-8.9v26.3z"/>
			<path id="Layer" class="s0" d="m526.2 112.9c-2.7 0-5.4 0.9-6.7 3.1-1.8 2.2-2.7 4.9-2.7 8.4 0 3.6 0.9 6.7 2.2 8.5 1.8 1.8 4.1 3.1 7.2 3.1 1.3 0 2.7 0 4-0.4 1.3-0.5 2.7-0.5 4-0.9v4.4c-2.2 0.9-5.3 1.3-8 1.3-4.5 0-8-1.3-10.3-4-2.2-2.6-3.5-6.6-3.5-11.5 0-3.1 0.4-5.8 1.7-8.5 1.4-2.2 2.7-4.4 4.9-5.3 2.3-0.9 5-1.8 8.1-1.8 3.1 0 6.2 0.5 8.9 1.8l-1.8 4c-0.9-0.4-2.2-0.9-3.1-1.3-0.9-0.5-3.6-0.9-4.9-0.9z"/>
			<path id="Layer" fill-rule="evenodd" class="s0" d="m562.3 139.6l-3.1-8.5h-11.6l-3.1 8.5h-5.4l11.6-30.7h5.4l11.6 30.7zm-4.5-12.9l-2.6-8.5c0-0.4-0.5-1.3-0.9-2.6-0.5-1.4-0.5-2.3-0.9-2.7-0.5 1.8-0.9 3.5-1.8 5.8l-2.7 8z"/>
			<path id="Layer" fill-rule="evenodd" class="s0" d="m578.9 127.1v12.5h-5v-30.7h9c4 0 7.1 0.9 8.9 2.2q2.7 2 2.7 6.7c0 4-1.8 6.6-5.8 8l8.9 13.8h-5.8l-7.6-12.5zm0-4h3.6c2.2 0 4-0.4 4.9-1.3 0.9-0.9 1.8-2.2 1.8-4 0-1.8-0.5-3.1-1.8-3.6-1.3-0.9-2.7-1.3-5.4-1.3h-3.1z"/>
			<path id="Layer" class="s0" d="m620.8 139.6h-17.4v-30.7h17.4v4.4h-12.5v8.5h11.6v4h-11.6v9.8h12.5z"/>
			<path id="Layer" class="s0" d="m646.2 139.6h-17.4v-30.7h17.4v4.4h-12.5v8.5h11.7v4h-11.7v9.8h12.5z"/>
			<path id="Layer" fill-rule="evenodd" class="s0" d="m659.2 127.1v12.5h-4.9v-30.7h8.9c4 0 7.1 0.9 8.9 2.2q2.7 2 2.7 6.7c0 4-1.8 6.6-5.8 8l8.9 13.8h-5.8l-7.6-12.5zm0-4h3.6c2.2 0 4-0.4 4.9-1.3 0.9-0.9 1.8-2.2 1.8-4 0-1.8-0.4-3.1-1.8-3.6-1.3-0.9-2.7-1.3-5.3-1.3h-3.2z"/>
		</g>
	</g>
</svg>